<svg width="189" height="189" viewBox="0 0 189 189" fill="none" xmlns="http://www.w3.org/2000/svg">
<path d="M130.632 38.75L160.513 90.5058C161.853 92.8263 161.853 95.6852 160.513 98.0058L130.632 149.762C129.292 152.082 126.816 153.512 124.137 153.512L64.3746 153.512C61.6951 153.512 59.2191 152.082 57.8794 149.762L27.9982 98.0058C26.6584 95.6852 26.6584 92.8263 27.9982 90.5057L57.8794 38.75C59.2191 36.4295 61.6951 35 64.3746 35L124.137 35C126.816 35 129.292 36.4295 130.632 38.75Z" stroke="white" stroke-opacity="0.02"/>
<path d="M126.632 45.6782L152.513 90.5058C153.853 92.8263 153.853 95.6853 152.513 98.0058L126.632 142.833C125.292 145.154 122.816 146.583 120.137 146.583L68.3746 146.583C65.6951 146.583 63.2191 145.154 61.8794 142.833L35.9982 98.0058C34.6584 95.6853 34.6584 92.8263 35.9982 90.5058L61.8794 45.6782C63.2191 43.3577 65.6951 41.9282 68.3746 41.9282L120.137 41.9282C122.816 41.9282 125.292 43.3577 126.632 45.6782Z" stroke="white" stroke-opacity="0.05"/>
<path d="M122.632 52.6064L144.513 90.5058C145.853 92.8263 145.853 95.6853 144.513 98.0058L122.632 135.905C121.292 138.226 118.816 139.655 116.137 139.655L72.3746 139.655C69.6951 139.655 67.2191 138.226 65.8794 135.905L43.9982 98.0058C42.6585 95.6853 42.6585 92.8263 43.9982 90.5058L65.8794 52.6064C67.2192 50.2859 69.6951 48.8564 72.3746 48.8564L116.137 48.8564C118.816 48.8564 121.292 50.2859 122.632 52.6064Z" stroke="white" stroke-opacity="0.1"/>
<path d="M112.137 55.2845C114.995 55.2845 117.636 56.8093 119.065 59.2845L136.946 90.2557C138.375 92.7309 138.375 95.7805 136.946 98.2557L119.065 129.227C117.636 131.702 114.995 133.227 112.137 133.227L76.3745 133.227C73.5164 133.227 70.8753 131.702 69.4463 129.227L51.5651 98.2557C50.136 95.7805 50.136 92.7309 51.5651 90.2557L69.4463 59.2845C70.8754 56.8093 73.5164 55.2845 76.3745 55.2845L112.137 55.2845Z" fill="#F09A38"/>
<path d="M106.506 92.5057H82.0057C81.0392 92.5057 80.2557 93.2892 80.2557 94.2557C80.2557 95.2222 81.0392 96.0057 82.0057 96.0057H106.506C107.472 96.0057 108.256 95.2222 108.256 94.2557C108.256 93.2892 107.472 92.5057 106.506 92.5057Z" fill="black"/>
<path d="M96.0057 106.506V82.0057C96.0057 81.0392 95.2222 80.2557 94.2557 80.2557C93.2892 80.2557 92.5057 81.0392 92.5057 82.0057V106.506C92.5057 107.472 93.2892 108.256 94.2557 108.256C95.2222 108.256 96.0057 107.472 96.0057 106.506Z" fill="black"/>
</svg>
